<svg width="153" height="154" viewBox="0 0 153 154" fill="none" xmlns="http://www.w3.org/2000/svg">
<path d="M150 77C150 36.1185 117.081 3 76.5 3C35.9195 3 3 36.1185 3 77C3 117.882 35.9195 151 76.5 151C117.081 151 150 117.882 150 77Z" stroke="#9441FF" stroke-width="4" stroke-linecap="round"/>
<path d="M146 77C146 38.3269 114.871 7 76.5 7C38.1293 7 7 38.3269 7 77C7 115.673 38.1293 147 76.5 147C114.871 147 146 115.673 146 77Z" fill="#FFCD93" stroke="#F4F5F9" stroke-width="4" stroke-linecap="round"/>
<circle cx="76.5" cy="57.5" r="35" fill="#F6F6F6" stroke="#414141" stroke-linecap="round"/>
<path d="M118.118 121.244C115.618 113.543 109.449 107.607 101.808 103.589C94.1688 99.5726 85.106 97.5 76.9146 97.5C68.4089 97.5 59.1228 99.6154 51.3164 103.748C43.5093 107.882 37.2234 114.009 34.6288 122.012L32.5706 128.361C32.6943 128.481 32.872 128.65 33.1026 128.862C33.6018 129.32 34.3491 129.976 35.3358 130.766C37.3093 132.345 40.239 134.453 44.0544 136.562C51.6849 140.781 62.8522 145 77 145C91.1469 145 102.062 140.781 109.439 136.566C113.129 134.458 115.932 132.351 117.811 130.773C118.751 129.985 119.459 129.329 119.93 128.871C120.148 128.66 120.316 128.491 120.432 128.371L118.118 121.244Z" fill="#F6F6F6" stroke="#414141" stroke-linecap="round" stroke-linejoin="round"/>
<circle cx="60.5" cy="51.5" r="9" stroke="#414141" stroke-linecap="round"/>
<circle cx="92.5" cy="51.5" r="9" stroke="#414141" stroke-linecap="round"/>
<path d="M92 74C92 74 86.5 79 76.5 79C66.5 79 61 74 61 74" stroke="#414141" stroke-width="2" stroke-linecap="round"/>
<line x1="45.6464" y1="136.648" x2="47.9758" y2="127.955" stroke="#414141" stroke-linecap="round" stroke-linejoin="round"/>
<line x1="103.612" y1="129.354" x2="105.942" y2="138.047" stroke="#414141" stroke-linecap="round" stroke-linejoin="round"/>
<path d="M92.5 107C86.9927 111.159 72.9932 118.379 62 106" stroke="#414141" stroke-linecap="round" stroke-linejoin="round"/>
<path d="M91 111.5C88.4555 114.502 73.0577 121.278 62.5 110.5" stroke="#414141" stroke-linecap="round" stroke-linejoin="round"/>
<path d="M68.5 144.5C70.3979 141.02 72.7864 133.118 70 126.117M70 126.117C69.8501 125.74 69.6838 125.368 69.5001 125C65.0001 116 59.5 110.5 63 99.5C59.8333 99.8333 53.6001 102.1 54.0001 110.5C54.4001 118.9 55.1667 123.667 55.5 125C57.6667 122.667 62.3 118.7 63.5 121.5C64.7 124.3 68.3333 125.744 70 126.117Z" stroke="#414141" stroke-linecap="round" stroke-linejoin="round"/>
<path d="M83.5001 144.5C82.4256 141.276 81.1248 133.802 83.7388 126M83.7388 126C83.9629 125.331 84.2158 124.663 84.5001 124C89.0001 113.5 95.5001 107.5 92.0001 100C94.3335 100.833 99.7402 101.12 101 107C101.961 111.485 100.596 114.943 99.2722 116.981C98.7664 117.76 97.9816 117.289 98.1033 116.368C98.5725 112.817 97.6104 109.89 96.0001 111.5C93.5001 114 94.0001 120 91.0001 120C88.4703 120 85.1592 124.167 83.7388 126Z" stroke="#414141" stroke-linecap="round" stroke-linejoin="round"/>
<path d="M61.5 118C60.1666 115.667 57.8 109.9 59 105.5" stroke="#414141" stroke-linecap="round" stroke-linejoin="round"/>
<path d="M97 107C97 104.5 96 102 92 100.5" stroke="#414141" stroke-linecap="round" stroke-linejoin="round"/>
<path d="M83.5 52.5C83.5 52.5 83 50 76.5 50C70 50 69.5 52.5 69.5 52.5" stroke="#414141"/>
</svg>
