<svg width="153" height="154" viewBox="0 0 153 154" fill="none" xmlns="http://www.w3.org/2000/svg">
<path d="M150 77C150 36.1185 117.081 3 76.5 3C35.9195 3 3 36.1185 3 77C3 117.882 35.9195 151 76.5 151C117.081 151 150 117.882 150 77Z" stroke="#9441FF" stroke-width="4" stroke-linecap="round"/>
<path d="M146 77C146 38.3269 114.871 7 76.5 7C38.1293 7 7 38.3269 7 77C7 115.673 38.1293 147 76.5 147C114.871 147 146 115.673 146 77Z" fill="#96E8A8" stroke="#F4F5F9" stroke-width="4" stroke-linecap="round"/>
<circle cx="76.5" cy="57.5" r="35" fill="#F6F6F6" stroke="#414141" stroke-linecap="round"/>
<path d="M118.118 121.244C115.618 113.543 109.449 107.607 101.808 103.589C94.1688 99.5726 85.106 97.5 76.9146 97.5C68.4089 97.5 59.1228 99.6154 51.3164 103.748C43.5093 107.882 37.2234 114.009 34.6288 122.012L32.5706 128.361C32.6943 128.481 32.872 128.65 33.1026 128.862C33.6018 129.32 34.3491 129.976 35.3358 130.766C37.3093 132.345 40.239 134.453 44.0544 136.562C51.6849 140.781 62.8522 145 77 145C91.1469 145 102.062 140.781 109.439 136.566C113.129 134.458 115.932 132.351 117.811 130.773C118.751 129.985 119.459 129.329 119.93 128.871C120.148 128.66 120.316 128.491 120.432 128.371L118.118 121.244Z" fill="#F6F6F6" stroke="#414141" stroke-linecap="round"/>
<circle cx="63" cy="50" r="3" fill="#414141"/>
<circle cx="91" cy="50" r="3" fill="#414141"/>
<path d="M92 74C92 74 86.5 81.5 76.5 81.5C66.5 81.5 61 74 61 74" stroke="#414141" stroke-width="2" stroke-linecap="round"/>
<line x1="45.6464" y1="136.648" x2="47.9758" y2="127.955" stroke="#414141" stroke-linecap="round"/>
<line x1="103.612" y1="129.354" x2="105.942" y2="138.047" stroke="#414141" stroke-linecap="round"/>
<path d="M95 100.5C87.5 113.5 69.3 114.5 58.5 100.5" stroke="#414141" stroke-linecap="round"/>
<path d="M78.5 110.5L82.5 120L80 123.5L83 144.5C83 144.5 80 145 76.5 145C73 145 70.5 144.5 70.5 144.5L73 123.5L70 120L74.5 110.5H77H78.5Z" fill="#414141"/>
<path d="M72.5 123.5H80.5" stroke="#F6F6F6" stroke-linecap="round"/>
<path d="M78.5 110.5L84 123C89.6667 119.5 100.3 112.9 99.5 102.5" stroke="#414141" stroke-linecap="round"/>
<path d="M74.5 110.5L69.0082 122.5C63.3531 119.074 52.7016 112.679 53.5 102.5" stroke="#414141" stroke-linecap="round"/>
<rect x="51" y="126" width="16" height="9" fill="#414141"/>
</svg>
