<svg width="150" height="175" viewBox="0 0 150 175" fill="none" xmlns="http://www.w3.org/2000/svg">
<rect x="0.68214" y="1.24115" width="97.3792" height="120.316" rx="7" transform="matrix(0.959858 0.280486 -0.277718 0.960663 54.9822 -0.142507)" fill="#FFBE41" stroke="#414141" stroke-width="2"/>
<rect x="1.14694" y="0.825298" width="107.115" height="132.374" rx="7" transform="matrix(0.986823 -0.161801 0.160115 0.987098 -0.11703 42.5557)" fill="#FFBE41" stroke="#414141" stroke-width="2"/>
<path d="M102.715 80.0193L82.2778 93.4795L68.7901 73.0041L89.2269 59.5439L102.715 80.0193ZM43.5097 112.286C43.6566 113.937 42.4383 115.392 40.7886 115.536C39.1388 115.68 37.6824 114.458 37.5355 112.807L43.5097 112.286ZM85.1506 79.4506C77.2827 77.8236 65.9105 77.6713 57.075 82.0695C52.7275 84.2336 49.0175 87.4824 46.5484 92.2231C44.07 96.9815 42.7253 103.469 43.5097 112.286L37.5355 112.807C36.6744 103.129 38.1048 95.4388 41.2285 89.4414C44.3614 83.4262 49.0806 79.3405 54.3959 76.6946C64.8861 71.4728 77.7743 71.7985 86.3542 73.5728L85.1506 79.4506Z" fill="#414141"/>
<path d="M47.0673 105.472L52.9688 102.876L59.6079 119.193L35.6333 128.464L30.4695 114.372" stroke="#F6F6F6" stroke-width="6" stroke-linecap="round" stroke-linejoin="round"/>
</svg>
