<svg width="42" height="32" viewBox="0 0 42 32" fill="none" xmlns="http://www.w3.org/2000/svg">
<g clip-path="url(#clip0_552_344)">
<circle cx="26.2068" cy="16" r="15" fill="#F6F6F6" stroke="#545454" stroke-width="2"/>
<path d="M19.3496 21.5V21H18.8496L18.8496 21.5L19.3496 21.5ZM32.7374 21.5L33.2048 21.6774C33.2631 21.5237 33.2422 21.3513 33.1489 21.216C33.0555 21.0808 32.9017 21 32.7374 21V21.5ZM19.3496 21.5C18.8496 21.5 18.8496 21.5003 18.8496 21.5006C18.8496 21.5007 18.8496 21.501 18.8496 21.5013C18.8496 21.5018 18.8496 21.5024 18.8496 21.503C18.8496 21.5044 18.8496 21.5061 18.8496 21.5081C18.8497 21.5121 18.8497 21.5174 18.8499 21.5241C18.8501 21.5373 18.8505 21.5557 18.8513 21.5789C18.8529 21.6252 18.856 21.6908 18.862 21.7729C18.874 21.937 18.8978 22.1679 18.9451 22.4438C19.0391 22.9931 19.2282 23.7329 19.6112 24.4785C19.9953 25.2263 20.5787 25.9874 21.4612 26.5601C22.3462 27.1344 23.5026 27.5 25 27.5V26.5C23.6722 26.5 22.7097 26.1781 22.0055 25.7212C21.2989 25.2626 20.8228 24.6487 20.5007 24.0215C20.1774 23.3921 20.0132 22.7569 19.9307 22.275C19.8897 22.0352 19.8693 21.8365 19.8593 21.6997C19.8543 21.6315 19.8519 21.5789 19.8507 21.5447C19.8501 21.5276 19.8498 21.5151 19.8497 21.5075C19.8497 21.5037 19.8496 21.5012 19.8496 21.4999C19.8496 21.4993 19.8496 21.499 19.8496 21.499C19.8496 21.499 19.8496 21.4991 19.8496 21.4992C19.8496 21.4993 19.8496 21.4995 19.8496 21.4996C19.8496 21.4998 19.8496 21.5 19.3496 21.5ZM25 27.5C28.008 27.5 30.0683 26.0299 31.3605 24.5831C32.0054 23.861 32.4636 23.1406 32.761 22.6006C32.9099 22.3301 33.0193 22.1034 33.0921 21.9426C33.1286 21.8621 33.1559 21.798 33.1746 21.7529C33.1839 21.7304 33.1911 21.7126 33.1961 21.6999C33.1986 21.6935 33.2006 21.6884 33.202 21.6847C33.2028 21.6828 33.2034 21.6813 33.2038 21.68C33.2041 21.6794 33.2043 21.6789 33.2044 21.6785C33.2045 21.6782 33.2046 21.678 33.2047 21.6779C33.2048 21.6776 33.2048 21.6774 32.7374 21.5C32.2699 21.3226 32.27 21.3224 32.27 21.3223C32.27 21.3222 32.2701 21.3221 32.2701 21.322C32.2701 21.3219 32.2702 21.3219 32.2701 21.322C32.2701 21.3221 32.2699 21.3225 32.2696 21.3233C32.269 21.3248 32.2679 21.3276 32.2663 21.3317C32.2631 21.3398 32.2579 21.3529 32.2505 21.3706C32.2358 21.4061 32.2128 21.4602 32.1812 21.5301C32.1178 21.67 32.02 21.8731 31.885 22.1182C31.6145 22.6094 31.1978 23.264 30.6147 23.9169C29.4508 25.2201 27.6425 26.5 25 26.5V27.5ZM32.7374 21H19.3496V22H32.7374V21Z" fill="#545454"/>
<path d="M14.2068 7L38.2068 7" stroke="#545454" stroke-width="3"/>
<path d="M14.8584 6.77517C13.9198 5.81358 11.3652 4.06641 8.65511 4.77037C5.94505 5.47433 2.42251 3.97858 1 3.1427" stroke="#545454" stroke-width="2" stroke-linecap="round" stroke-linejoin="round"/>
<path d="M15.0325 6.70187C13.7143 6.44102 10.6194 6.4481 8.78465 8.56325C6.94995 10.6784 3.19973 11.4409 1.55396 11.5577" stroke="#545454" stroke-width="2" stroke-linecap="round" stroke-linejoin="round"/>
<path d="M21.9243 8.44545L21.9243 8.44545L21.8932 8.4007L21.4912 8.67972L21.8932 8.4007C21.7008 8.12353 21.6024 7.96748 21.5488 7.81223L21.0762 7.97535L21.5488 7.81223C21.5082 7.69472 21.4856 7.55256 21.5487 7.31819C21.6587 6.90966 21.4998 6.47611 21.1517 6.23553L20.8674 6.64682L21.1517 6.23553C20.8037 5.99495 20.342 5.99942 19.9987 6.2467C19.2936 6.75452 18.831 7.2825 18.5623 7.85125C18.3826 8.23167 18.3095 8.58938 18.2826 8.90131C18.0648 8.72983 17.8462 8.57014 17.6604 8.43536L17.5961 8.38874L17.5961 8.38874C17.3865 8.23681 17.2503 8.13767 17.1696 8.07006L16.8485 8.45339L17.1696 8.07006C16.8428 7.7964 16.3785 7.75993 16.013 7.97922C15.6475 8.1985 15.4612 8.62534 15.5489 9.04244C15.7475 9.98736 15.5646 10.7 15.3362 11.5644L15.2907 11.737L15.7724 11.8631L15.2907 11.737C15.0418 12.6879 14.7761 13.8514 15.4515 15.2515C15.6119 15.5842 15.7542 15.8751 15.9467 16.1366C16.1503 16.4131 16.3812 16.6197 16.654 16.8481C17.5973 17.6382 18.927 18.1014 20.256 18.0653C21.6105 18.0284 23.0169 17.4674 23.9953 16.147C24.9717 14.8292 25.1121 13.2554 24.9607 11.9339C24.809 10.6092 24.3518 9.40718 23.962 8.67791C23.7442 8.2705 23.2758 8.06527 22.8286 8.18141C22.5126 8.26353 22.2653 8.49115 22.1504 8.78071C22.0753 8.66235 22.0015 8.55634 21.9363 8.46264C21.9323 8.45686 21.9283 8.45113 21.9243 8.44545ZM22.8115 11.2696C22.8819 11.5551 22.9386 11.8553 22.9737 12.1616C23.0932 13.2045 22.9505 14.1976 22.3884 14.9562C21.828 15.7124 21.0353 16.0433 20.2016 16.066C19.3419 16.0894 18.4929 15.7795 17.9381 15.3148C17.6838 15.1019 17.6103 15.0229 17.5573 14.9509C17.4933 14.864 17.4272 14.744 17.2529 14.3826C16.9072 13.666 16.9972 13.1157 17.2255 12.2434C17.2415 12.1822 17.2581 12.1201 17.2752 12.0558L17.2792 12.0406C17.3681 11.7064 17.4689 11.3273 17.5401 10.9046C17.5794 10.9447 17.6138 10.9825 17.6432 11.0177C17.6663 11.0453 17.6825 11.067 17.6936 11.0829C17.7394 11.3875 17.9241 11.657 18.1979 11.8087C18.5106 11.9818 18.8919 11.9749 19.1981 11.7906C19.7768 11.4423 20.1123 10.9762 20.2322 10.411C20.2838 10.1679 20.288 9.94013 20.285 9.76512C20.2839 9.7026 20.2816 9.64028 20.2793 9.58307C20.4555 9.83774 20.5632 10.0026 20.6256 10.1635C20.6812 10.307 20.7024 10.4552 20.6558 10.6747C20.5732 11.0643 20.7295 11.4657 21.0538 11.6968C21.3781 11.9278 21.8086 11.9444 22.1498 11.7391C22.3341 11.6281 22.5701 11.4669 22.8115 11.2696ZM18.1821 10.9426L18.1769 10.9427L17.8841 10.5414C17.7605 10.6334 17.6811 10.7812 17.6825 10.9467C17.6825 10.9427 17.6825 10.9368 17.6826 10.9299L17.6827 10.9293C17.6828 10.9236 17.6835 10.8908 17.6911 10.8506L17.6912 10.8501C17.6942 10.8344 17.7061 10.7711 17.7455 10.7003C17.7629 10.6689 17.8082 10.6004 17.8846 10.5419C17.9375 10.5953 17.9852 10.6472 18.0271 10.6973C18.1544 10.8498 18.1778 10.928 18.1817 10.9412C18.1819 10.9418 18.182 10.9423 18.1821 10.9426Z" fill="#545454" stroke="#F6F6F6" stroke-linecap="round" stroke-linejoin="round"/>
<path d="M16.3521 14.8171C16.6863 15.5099 16.7695 15.6406 17.2959 16.0815C18.7941 17.3362 21.6532 17.6278 23.1917 15.5516C24.7301 13.4754 23.7582 10.4183 23.0799 9.1493C23.0918 9.83222 22.1209 10.5892 21.6339 10.8823C21.9977 9.16819 20.1209 8.774 20.583 7.05814C18.1531 8.80835 20.1432 10.0545 18.6823 10.9339C18.6704 10.251 17.0268 9.25496 16.5274 8.83673C17.064 11.3891 15.331 12.7002 16.3521 14.8171Z" fill="#FFBE41"/>
<path d="M34.0112 8.44545L34.0112 8.44545L33.9801 8.4007L33.5781 8.67972L33.9801 8.4007C33.7878 8.12353 33.6893 7.96748 33.6357 7.81223L33.1631 7.97535L33.6357 7.81223C33.5951 7.69472 33.5725 7.55256 33.6356 7.31819C33.7456 6.90966 33.5867 6.47611 33.2387 6.23553L32.9543 6.64682L33.2387 6.23553C32.8906 5.99495 32.4289 5.99942 32.0856 6.2467C31.3805 6.75452 30.9179 7.2825 30.6492 7.85125C30.4695 8.23167 30.3964 8.58938 30.3695 8.90131C30.1518 8.72983 29.9331 8.57014 29.7473 8.43536L29.683 8.38874L29.683 8.38874C29.4734 8.23681 29.3372 8.13767 29.2565 8.07006L28.9354 8.45339L29.2565 8.07006C28.9297 7.7964 28.4654 7.75993 28.0999 7.97922C27.7344 8.1985 27.5481 8.62534 27.6358 9.04244C27.8345 9.98736 27.6515 10.7 27.4231 11.5644L27.3776 11.737L27.8593 11.8631L27.3776 11.737C27.1287 12.6879 26.863 13.8514 27.5384 15.2515C27.6989 15.5842 27.8411 15.8751 28.0336 16.1366C28.2372 16.4131 28.4681 16.6197 28.7409 16.8481C29.6842 17.6382 31.0139 18.1014 32.3429 18.0653C33.6974 18.0284 35.1038 17.4674 36.0822 16.147C37.0587 14.8292 37.199 13.2554 37.0476 11.9339C36.8959 10.6092 36.4387 9.40718 36.0489 8.67791C35.8312 8.2705 35.3627 8.06527 34.9156 8.18141C34.5995 8.26353 34.3522 8.49115 34.2373 8.78071C34.1622 8.66235 34.0884 8.55634 34.0232 8.46264C34.0192 8.45686 34.0152 8.45113 34.0112 8.44545ZM34.8984 11.2696C34.9688 11.5551 35.0256 11.8553 35.0606 12.1616C35.1801 13.2045 35.0375 14.1976 34.4753 14.9562C33.915 15.7124 33.1222 16.0433 32.2885 16.066C31.4288 16.0894 30.5799 15.7795 30.025 15.3148C29.7707 15.1019 29.6972 15.0229 29.6442 14.9509C29.5802 14.864 29.5141 14.744 29.3398 14.3826C28.9941 13.666 29.0842 13.1157 29.3125 12.2434C29.3285 12.1822 29.345 12.1201 29.3621 12.0558L29.3661 12.0406C29.455 11.7064 29.5558 11.3273 29.627 10.9046C29.6663 10.9447 29.7007 10.9825 29.7301 11.0177C29.7532 11.0453 29.7694 11.067 29.7805 11.0829C29.8263 11.3875 30.0111 11.657 30.2849 11.8087C30.5975 11.9818 30.9788 11.9749 31.285 11.7906C31.8637 11.4423 32.1992 10.9762 32.3191 10.411C32.3707 10.1679 32.3749 9.94013 32.3719 9.76512C32.3708 9.7026 32.3685 9.64028 32.3662 9.58307C32.5424 9.83774 32.6502 10.0026 32.7125 10.1635C32.7681 10.307 32.7893 10.4552 32.7427 10.6747C32.6601 11.0643 32.8164 11.4657 33.1407 11.6968C33.465 11.9278 33.8955 11.9444 34.2367 11.7391C34.421 11.6281 34.657 11.4669 34.8984 11.2696ZM30.269 10.9426L30.2639 10.9427L29.971 10.5414C29.8474 10.6334 29.768 10.7812 29.7694 10.9467C29.7694 10.9427 29.7694 10.9368 29.7696 10.9299L29.7696 10.9293C29.7697 10.9236 29.7705 10.8908 29.778 10.8506L29.7781 10.8501C29.7811 10.8344 29.793 10.7711 29.8324 10.7003C29.8498 10.6689 29.8951 10.6004 29.9715 10.5419C30.0244 10.5953 30.0721 10.6472 30.114 10.6973C30.2413 10.8498 30.2647 10.928 30.2686 10.9412C30.2688 10.9418 30.2689 10.9423 30.269 10.9426Z" fill="#545454" stroke="#F6F6F6" stroke-linecap="round" stroke-linejoin="round"/>
<path d="M28.439 14.8171C28.7732 15.5099 28.8564 15.6406 29.3828 16.0815C30.881 17.3362 33.7402 17.6278 35.2786 15.5516C36.817 13.4754 35.8451 10.4183 35.1668 9.1493C35.1788 9.83222 34.2078 10.5892 33.7208 10.8823C34.0846 9.16819 32.2078 8.774 32.6699 7.05814C30.24 8.80835 32.2301 10.0545 30.7692 10.9339C30.7573 10.251 29.1137 9.25496 28.6143 8.83673C29.1509 11.3891 27.4179 12.7002 28.439 14.8171Z" fill="#FFBE41"/>
</g>
<defs>
<clipPath id="clip0_552_344">
<rect width="42" height="32" fill="white"/>
</clipPath>
</defs>
</svg>
