<svg width="82" height="82" viewBox="0 0 82 82" fill="none" xmlns="http://www.w3.org/2000/svg">
<rect x="1" y="1" width="56.8471" height="80" rx="11" transform="matrix(1.19249e-08 1 1 2.76417e-08 -2.76417e-08 12)" fill="#C0A0E9" stroke="#9441FF" stroke-width="2"/>
<mask id="path-2-inside-1_552_186" fill="white">
<path fill-rule="evenodd" clip-rule="evenodd" d="M63.6866 14.894C62.475 18.5373 59.0384 21.1646 54.9883 21.1646H27.4941C23.444 21.1646 20.0074 18.5373 18.7958 14.894L12 14.894C5.37258 14.894 -4.49094e-07 20.2666 0 26.894L2.16523e-06 58.847C2.61432e-06 65.4744 5.37259 70.847 12 70.847L70 70.847C76.6274 70.847 82 65.4744 82 58.847V26.8941C82 20.2666 76.6274 14.894 70 14.894L63.6866 14.894Z"/>
</mask>
<path fill-rule="evenodd" clip-rule="evenodd" d="M63.6866 14.894C62.475 18.5373 59.0384 21.1646 54.9883 21.1646H27.4941C23.444 21.1646 20.0074 18.5373 18.7958 14.894L12 14.894C5.37258 14.894 -4.49094e-07 20.2666 0 26.894L2.16523e-06 58.847C2.61432e-06 65.4744 5.37259 70.847 12 70.847L70 70.847C76.6274 70.847 82 65.4744 82 58.847V26.8941C82 20.2666 76.6274 14.894 70 14.894L63.6866 14.894Z" fill="#F6F6F6"/>
<path d="M63.6866 14.894V12.894L62.244 12.894L61.7888 14.2629L63.6866 14.894ZM18.7958 14.894L20.6936 14.2629L20.2384 12.894H18.7958V14.894ZM12 14.894V12.894V14.894ZM0 26.894H-2H0ZM2.16523e-06 58.847H2H2.16523e-06ZM12 70.847V72.847V70.847ZM70 70.847V68.847V70.847ZM70 14.894V12.894V14.894ZM54.9883 23.1646C59.9254 23.1646 64.1091 19.9613 65.5844 15.5252L61.7888 14.2629C60.8408 17.1133 58.1515 19.1646 54.9883 19.1646V23.1646ZM27.4941 23.1646H54.9883V19.1646H27.4941V23.1646ZM16.898 15.5252C18.3733 19.9613 22.557 23.1646 27.4941 23.1646V19.1646C24.3309 19.1646 21.6416 17.1133 20.6936 14.2629L16.898 15.5252ZM18.7958 12.894L12 12.894V16.894L18.7958 16.894V12.894ZM12 12.894C4.26801 12.894 -2 19.1621 -2 26.894H2C2 21.3712 6.47715 16.894 12 16.894V12.894ZM-2 26.894L-2 58.847H2L2 26.894H-2ZM-2 58.847C-2 66.579 4.26801 72.847 12 72.847V68.847C6.47716 68.847 2 64.3698 2 58.847H-2ZM12 72.847L70 72.847V68.847L12 68.847V72.847ZM70 72.847C77.732 72.847 84 66.579 84 58.847H80C80 64.3698 75.5229 68.847 70 68.847V72.847ZM84 58.847V26.8941H80V58.847H84ZM84 26.8941C84 19.1621 77.732 12.894 70 12.894V16.894C75.5228 16.894 80 21.3712 80 26.8941H84ZM70 12.894L63.6866 12.894V16.894L70 16.894V12.894Z" fill="#9441FF" mask="url(#path-2-inside-1_552_186)"/>
<path d="M63.6866 14.894V12.894L62.244 12.894L61.7888 14.2629L63.6866 14.894ZM18.7958 14.894L20.6936 14.2629L20.2384 12.894H18.7958V14.894ZM12 14.894V12.894V14.894ZM0 26.894H-2H0ZM2.16523e-06 58.847H2H2.16523e-06ZM12 70.847V72.847V70.847ZM70 70.847V68.847V70.847ZM70 14.894V12.894V14.894ZM54.9883 23.1646C59.9254 23.1646 64.1091 19.9613 65.5844 15.5252L61.7888 14.2629C60.8408 17.1133 58.1515 19.1646 54.9883 19.1646V23.1646ZM27.4941 23.1646H54.9883V19.1646H27.4941V23.1646ZM16.898 15.5252C18.3733 19.9613 22.557 23.1646 27.4941 23.1646V19.1646C24.3309 19.1646 21.6416 17.1133 20.6936 14.2629L16.898 15.5252ZM18.7958 12.894L12 12.894V16.894L18.7958 16.894V12.894ZM12 12.894C4.26801 12.894 -2 19.1621 -2 26.894H2C2 21.3712 6.47715 16.894 12 16.894V12.894ZM-2 26.894L-2 58.847H2L2 26.894H-2ZM-2 58.847C-2 66.579 4.26801 72.847 12 72.847V68.847C6.47716 68.847 2 64.3698 2 58.847H-2ZM12 72.847L70 72.847V68.847L12 68.847V72.847ZM70 72.847C77.732 72.847 84 66.579 84 58.847H80C80 64.3698 75.5229 68.847 70 68.847V72.847ZM84 58.847V26.8941H80V58.847H84ZM84 26.8941C84 19.1621 77.732 12.894 70 12.894V16.894C75.5228 16.894 80 21.3712 80 26.8941H84ZM70 12.894L63.6866 12.894V16.894L70 16.894V12.894Z" fill="#9441FF" mask="url(#path-2-inside-1_552_186)"/>
</svg>
