<svg width="82" height="82" viewBox="0 0 82 82" fill="none" xmlns="http://www.w3.org/2000/svg">
<path fill-rule="evenodd" clip-rule="evenodd" d="M10.7383 12.7247C12.9086 10.5625 15.902 9.22595 19.2076 9.22595L62.3892 9.22595C65.6948 9.22595 68.6882 10.5625 70.8585 12.7247L72.1876 12.7247L77.4896 20.329L80.2975 60.272H1.83887L3.59226 20.8044L9.75038 12.7247L10.7383 12.7247Z" fill="#5004B2"/>
<rect x="1" y="1" width="46.2353" height="65.5294" rx="11" transform="matrix(1.19249e-08 1 1 2.76417e-08 7.23535 8)" fill="#C0A0E9" stroke="#9441FF" stroke-width="2"/>
<mask id="path-3-inside-1_552_187" fill="white">
<path fill-rule="evenodd" clip-rule="evenodd" d="M63.6866 17.6471C62.4751 21.2904 59.0385 23.9177 54.9883 23.9177H27.4941C23.4439 23.9177 20.0074 21.2904 18.7958 17.6471L12 17.6471C5.37258 17.6471 -4.49094e-07 23.0197 0 29.6471L2.16524e-06 61.6001C2.61433e-06 68.2275 5.37259 73.6001 12 73.6001L70 73.6001C76.6274 73.6001 82 68.2275 82 61.6001V29.6471C82 23.0197 76.6274 17.6471 70 17.6471L63.6866 17.6471Z"/>
</mask>
<path fill-rule="evenodd" clip-rule="evenodd" d="M63.6866 17.6471C62.4751 21.2904 59.0385 23.9177 54.9883 23.9177H27.4941C23.4439 23.9177 20.0074 21.2904 18.7958 17.6471L12 17.6471C5.37258 17.6471 -4.49094e-07 23.0197 0 29.6471L2.16524e-06 61.6001C2.61433e-06 68.2275 5.37259 73.6001 12 73.6001L70 73.6001C76.6274 73.6001 82 68.2275 82 61.6001V29.6471C82 23.0197 76.6274 17.6471 70 17.6471L63.6866 17.6471Z" fill="#F6F6F6"/>
<path d="M63.6866 17.6471V15.6471L62.2441 15.6471L61.7888 17.016L63.6866 17.6471ZM18.7958 17.6471L20.6936 17.016L20.2384 15.6471H18.7958V17.6471ZM12 17.6471V19.6471V17.6471ZM0 29.6471H-2H0ZM2.16524e-06 61.6001H2H2.16524e-06ZM12 73.6001V75.6001V73.6001ZM70 73.6001V71.6001V73.6001ZM70 17.6471V15.6471V17.6471ZM54.9883 25.9177C59.9254 25.9177 64.1092 22.7144 65.5844 18.2782L61.7888 17.016C60.8409 19.8664 58.1515 21.9177 54.9883 21.9177V25.9177ZM27.4941 25.9177H54.9883V21.9177H27.4941V25.9177ZM16.898 18.2782C18.3732 22.7144 22.557 25.9177 27.4941 25.9177V21.9177C24.3309 21.9177 21.6415 19.8664 20.6936 17.016L16.898 18.2782ZM18.7958 15.6471L12 15.6471V19.6471L18.7958 19.6471V15.6471ZM12 15.6471C4.26801 15.6471 -2 21.9151 -2 29.6471H2C2 24.1242 6.47715 19.6471 12 19.6471V15.6471ZM-2 29.6471L-2 61.6001H2L2 29.6471H-2ZM-2 61.6001C-2 69.3321 4.26802 75.6001 12 75.6001V71.6001C6.47715 71.6001 2 67.1229 2 61.6001H-2ZM12 75.6001L70 75.6001V71.6001L12 71.6001V75.6001ZM70 75.6001C77.732 75.6001 84 69.332 84 61.6001H80C80 67.1229 75.5229 71.6001 70 71.6001V75.6001ZM84 61.6001V29.6471H80V61.6001H84ZM84 29.6471C84 21.9151 77.732 15.6471 70 15.6471V19.6471C75.5229 19.6471 80 24.1242 80 29.6471H84ZM70 15.6471L63.6866 15.6471V19.6471L70 19.6471V15.6471Z" fill="#9441FF" mask="url(#path-3-inside-1_552_187)"/>
<path d="M63.6866 17.6471V15.6471L62.2441 15.6471L61.7888 17.016L63.6866 17.6471ZM18.7958 17.6471L20.6936 17.016L20.2384 15.6471H18.7958V17.6471ZM12 17.6471V19.6471V17.6471ZM0 29.6471H-2H0ZM2.16524e-06 61.6001H2H2.16524e-06ZM12 73.6001V75.6001V73.6001ZM70 73.6001V71.6001V73.6001ZM70 17.6471V15.6471V17.6471ZM54.9883 25.9177C59.9254 25.9177 64.1092 22.7144 65.5844 18.2782L61.7888 17.016C60.8409 19.8664 58.1515 21.9177 54.9883 21.9177V25.9177ZM27.4941 25.9177H54.9883V21.9177H27.4941V25.9177ZM16.898 18.2782C18.3732 22.7144 22.557 25.9177 27.4941 25.9177V21.9177C24.3309 21.9177 21.6415 19.8664 20.6936 17.016L16.898 18.2782ZM18.7958 15.6471L12 15.6471V19.6471L18.7958 19.6471V15.6471ZM12 15.6471C4.26801 15.6471 -2 21.9151 -2 29.6471H2C2 24.1242 6.47715 19.6471 12 19.6471V15.6471ZM-2 29.6471L-2 61.6001H2L2 29.6471H-2ZM-2 61.6001C-2 69.3321 4.26802 75.6001 12 75.6001V71.6001C6.47715 71.6001 2 67.1229 2 61.6001H-2ZM12 75.6001L70 75.6001V71.6001L12 71.6001V75.6001ZM70 75.6001C77.732 75.6001 84 69.332 84 61.6001H80C80 67.1229 75.5229 71.6001 70 71.6001V75.6001ZM84 61.6001V29.6471H80V61.6001H84ZM84 29.6471C84 21.9151 77.732 15.6471 70 15.6471V19.6471C75.5229 19.6471 80 24.1242 80 29.6471H84ZM70 15.6471L63.6866 15.6471V19.6471L70 19.6471V15.6471Z" fill="#9441FF" mask="url(#path-3-inside-1_552_187)"/>
</svg>
