<svg width="82" height="82" viewBox="0 0 82 82" fill="none" xmlns="http://www.w3.org/2000/svg">
<path fill-rule="evenodd" clip-rule="evenodd" d="M11.0819 14.7488C13.2223 12.7657 16.0873 11.5535 19.2354 11.5535L62.7648 11.5535C65.9129 11.5535 68.7778 12.7657 70.9183 14.7488H73.0188L79.4464 24.9875L79.6845 62.5595H1.83887V26.527L8.74261 14.7488H11.0819Z" fill="#5004B2"/>
<rect width="48.2353" height="67.5294" rx="12" transform="matrix(1.19249e-08 1 1 2.76417e-08 7.23535 11.0712)" fill="#C0A0E9"/>
<rect x="1.12197" y="0.860919" width="39.4824" height="55.8824" rx="7" transform="matrix(0.130526 0.991445 0.991445 -0.130526 15.7504 13.4161)" fill="#FFBE41" stroke="#545454" stroke-width="2"/>
<rect x="0.870677" y="1.11442" width="46.2353" height="65.5294" rx="9" transform="matrix(-0.121869 0.992546 0.992546 0.121869 6.97492 9.95963)" fill="#FFBE41" stroke="#545454" stroke-width="2"/>
<mask id="path-5-inside-1_552_185" fill="white">
<path fill-rule="evenodd" clip-rule="evenodd" d="M63.6867 20.7183C62.4751 24.3616 59.0385 26.9889 54.9883 26.9889H27.4941C23.4439 26.9889 20.0073 24.3616 18.7958 20.7183L12 20.7183C5.37258 20.7183 -4.49094e-07 26.0908 0 32.7183L2.16524e-06 64.6712C2.61433e-06 71.2986 5.37259 76.6712 12 76.6712L70 76.6712C76.6274 76.6712 82 71.2986 82 64.6712V32.7182C82 26.0908 76.6274 20.7183 70 20.7183L63.6867 20.7183Z"/>
</mask>
<path fill-rule="evenodd" clip-rule="evenodd" d="M63.6867 20.7183C62.4751 24.3616 59.0385 26.9889 54.9883 26.9889H27.4941C23.4439 26.9889 20.0073 24.3616 18.7958 20.7183L12 20.7183C5.37258 20.7183 -4.49094e-07 26.0908 0 32.7183L2.16524e-06 64.6712C2.61433e-06 71.2986 5.37259 76.6712 12 76.6712L70 76.6712C76.6274 76.6712 82 71.2986 82 64.6712V32.7182C82 26.0908 76.6274 20.7183 70 20.7183L63.6867 20.7183Z" fill="#F6F6F6"/>
<path d="M63.6867 20.7183V18.7183L62.2441 18.7183L61.7888 20.0871L63.6867 20.7183ZM18.7958 20.7183L20.6936 20.0871L20.2383 18.7183H18.7958V20.7183ZM12 20.7183V18.7183V20.7183ZM0 32.7183H-2H0ZM2.16524e-06 64.6712H2H2.16524e-06ZM12 76.6712V78.6712V76.6712ZM70 76.6712V74.6712V76.6712ZM70 20.7183V18.7183V20.7183ZM54.9883 28.9889C59.9254 28.9889 64.1092 25.7855 65.5845 21.3494L61.7888 20.0871C60.8409 22.9376 58.1515 24.9889 54.9883 24.9889V28.9889ZM27.4941 28.9889H54.9883V24.9889H27.4941V28.9889ZM16.8979 21.3494C18.3732 25.7855 22.557 28.9889 27.4941 28.9889V24.9889C24.3309 24.9889 21.6415 22.9376 20.6936 20.0871L16.8979 21.3494ZM18.7958 18.7183L12 18.7183V22.7183L18.7958 22.7183V18.7183ZM12 18.7183C4.26801 18.7183 -2 24.9863 -2 32.7183H2C2 27.1954 6.47715 22.7183 12 22.7183V18.7183ZM-2 32.7183L-2 64.6712H2L2 32.7183H-2ZM-2 64.6712C-2 72.4032 4.26802 78.6712 12 78.6712V74.6712C6.47715 74.6712 2 70.1941 2 64.6712H-2ZM12 78.6712L70 78.6712V74.6712L12 74.6712V78.6712ZM70 78.6712C77.732 78.6712 84 72.4032 84 64.6712H80C80 70.1941 75.5229 74.6712 70 74.6712V78.6712ZM84 64.6712V32.7182H80V64.6712H84ZM84 32.7182C84 24.9863 77.732 18.7183 70 18.7183V22.7183C75.5229 22.7183 80 27.1954 80 32.7182H84ZM70 18.7183L63.6867 18.7183V22.7183L70 22.7183V18.7183Z" fill="#9441FF" mask="url(#path-5-inside-1_552_185)"/>
<path d="M63.6867 20.7183V18.7183L62.2441 18.7183L61.7888 20.0871L63.6867 20.7183ZM18.7958 20.7183L20.6936 20.0871L20.2383 18.7183H18.7958V20.7183ZM12 20.7183V18.7183V20.7183ZM0 32.7183H-2H0ZM2.16524e-06 64.6712H2H2.16524e-06ZM12 76.6712V78.6712V76.6712ZM70 76.6712V74.6712V76.6712ZM70 20.7183V18.7183V20.7183ZM54.9883 28.9889C59.9254 28.9889 64.1092 25.7855 65.5845 21.3494L61.7888 20.0871C60.8409 22.9376 58.1515 24.9889 54.9883 24.9889V28.9889ZM27.4941 28.9889H54.9883V24.9889H27.4941V28.9889ZM16.8979 21.3494C18.3732 25.7855 22.557 28.9889 27.4941 28.9889V24.9889C24.3309 24.9889 21.6415 22.9376 20.6936 20.0871L16.8979 21.3494ZM18.7958 18.7183L12 18.7183V22.7183L18.7958 22.7183V18.7183ZM12 18.7183C4.26801 18.7183 -2 24.9863 -2 32.7183H2C2 27.1954 6.47715 22.7183 12 22.7183V18.7183ZM-2 32.7183L-2 64.6712H2L2 32.7183H-2ZM-2 64.6712C-2 72.4032 4.26802 78.6712 12 78.6712V74.6712C6.47715 74.6712 2 70.1941 2 64.6712H-2ZM12 78.6712L70 78.6712V74.6712L12 74.6712V78.6712ZM70 78.6712C77.732 78.6712 84 72.4032 84 64.6712H80C80 70.1941 75.5229 74.6712 70 74.6712V78.6712ZM84 64.6712V32.7182H80V64.6712H84ZM84 32.7182C84 24.9863 77.732 18.7183 70 18.7183V22.7183C75.5229 22.7183 80 27.1954 80 32.7182H84ZM70 18.7183L63.6867 18.7183V22.7183L70 22.7183V18.7183Z" fill="#9441FF" mask="url(#path-5-inside-1_552_185)"/>
</svg>
