<svg width="153" height="154" viewBox="0 0 153 154" fill="none" xmlns="http://www.w3.org/2000/svg">
<path d="M150 77C150 36.1185 117.081 3 76.5 3C35.9195 3 3 36.1185 3 77C3 117.882 35.9195 151 76.5 151C117.081 151 150 117.882 150 77Z" stroke="#9441FF" stroke-width="4" stroke-linecap="round"/>
<path d="M146 77C146 38.3269 114.871 7 76.5 7C38.1293 7 7 38.3269 7 77C7 115.673 38.1293 147 76.5 147C114.871 147 146 115.673 146 77Z" fill="#CCA4FF" stroke="#F4F5F9" stroke-width="4" stroke-linecap="round"/>
<path d="M97.5 101.5C90 114.5 67.8 115.5 57 101.5" stroke="#414141" stroke-linecap="round"/>
<circle cx="76.5" cy="57.5" r="35" fill="#F6F6F6" stroke="#414141" stroke-linecap="round"/>
<path d="M118.118 121.244C115.618 113.543 109.449 107.607 101.808 103.589C94.1688 99.5726 85.106 97.5 76.9146 97.5C68.4089 97.5 59.1228 99.6154 51.3164 103.748C43.5093 107.882 37.2234 114.009 34.6288 122.012L32.5706 128.361C32.6943 128.481 32.872 128.65 33.1026 128.862C33.6018 129.32 34.3491 129.976 35.3358 130.766C37.3093 132.345 40.239 134.453 44.0544 136.562C51.6849 140.781 62.8522 145 77 145C91.1469 145 102.062 140.781 109.439 136.566C113.129 134.458 115.932 132.351 117.811 130.773C118.751 129.985 119.459 129.329 119.93 128.871C120.148 128.66 120.316 128.491 120.432 128.371L118.118 121.244Z" fill="#F6F6F6" stroke="#414141" stroke-linecap="round"/>
<circle cx="60.5" cy="51.5" r="9" stroke="#414141" stroke-linecap="round"/>
<path d="M51.5 52C52.3333 63 52 83.3 46 74.5" stroke="#414141" stroke-linecap="round"/>
<circle cx="92" cy="52" r="3" fill="#414141"/>
<path d="M92 74C92 74 86.5 79 76.5 79C66.5 79 61 74 61 74" stroke="#414141" stroke-width="2" stroke-linecap="round"/>
<path d="M99 102L104.5 122.5L100.25 128.5M96 134.5L100.25 128.5M100.25 128.5L104.5 139M95 101C94.6788 102.051 92.8105 108.903 92.428 110.5M89.5 143.5C88.5102 130.963 90.6272 118.018 92.428 110.5M92.428 110.5L76.3778 137.5M74 145V141.5L76.3778 137.5M76.3778 137.5C72.0852 131.333 62.9621 117.428 61.3621 110.628M60 100.5C62 110.5 62.5 132.5 58.5 142.5M54.5 102L49 119.5L52.3846 127.5M54.5 132.5L52.3846 127.5M52.3846 127.5L50.5 139" stroke="#414141" stroke-linecap="round"/>
<path d="M77.7744 115.82L74.7757 115.909L70.0162 118.467C68.9094 119.062 67.5346 118.501 67.1602 117.301L65.0657 110.59C64.6029 109.107 65.9337 107.686 67.444 108.05L75.0985 109.897L78.0972 109.808L83.2933 107.904L84.4404 107.484C86.0392 106.898 87.5921 108.45 87.0067 110.049L84.6077 116.601C84.2054 117.7 82.9499 118.22 81.8884 117.728L77.7744 115.82Z" fill="#414141"/>
<path d="M92.9999 108.5C91.4999 112 83.9803 114.425 80.674 115.36L71.6783 115.636C69.8509 115.859 66.4568 115.551 61.4999 110.5" stroke="#414141" stroke-linecap="round"/>
<path d="M94 104.5C91.5002 108 83.9801 109.425 80.6739 110.36L71.6781 110.636C69.8507 110.858 63.5 108.5 61 105.5" stroke="#414141" stroke-linecap="round"/>
<circle cx="77.5" cy="142.5" r="1.5" fill="#414141"/>
</svg>
