<svg width="153" height="154" viewBox="0 0 153 154" fill="none" xmlns="http://www.w3.org/2000/svg">
<path d="M150 77C150 36.1185 117.081 3 76.5 3C35.9195 3 3 36.1185 3 77C3 117.882 35.9195 151 76.5 151C117.081 151 150 117.882 150 77Z" stroke="#9441FF" stroke-width="4" stroke-linecap="round"/>
<path d="M146 77C146 38.3269 114.871 7 76.5 7C38.1293 7 7 38.3269 7 77C7 115.673 38.1293 147 76.5 147C114.871 147 146 115.673 146 77Z" fill="#A4DEFF" stroke="#F4F5F9" stroke-width="4" stroke-linecap="round"/>
<circle cx="76.5" cy="57.5" r="35" fill="#F6F6F6" stroke="#414141" stroke-linecap="round"/>
<path d="M118.118 121.244C115.618 113.543 109.449 107.607 101.808 103.589C94.1688 99.5726 85.106 97.5 76.9146 97.5C68.4089 97.5 59.1228 99.6154 51.3164 103.748C43.5093 107.882 37.2234 114.009 34.6288 122.012L32.5706 128.361C32.6943 128.481 32.872 128.65 33.1026 128.862C33.6018 129.32 34.3491 129.976 35.3358 130.766C37.3093 132.345 40.239 134.453 44.0544 136.562C51.6849 140.781 62.8522 145 77 145C91.1469 145 102.062 140.781 109.439 136.566C113.129 134.458 115.932 132.351 117.811 130.773C118.751 129.985 119.459 129.329 119.93 128.871C120.148 128.66 120.316 128.491 120.432 128.371L118.118 121.244Z" fill="#F6F6F6" stroke="#414141" stroke-linecap="round"/>
<path d="M92 74C92 74 86.5 79 76.5 79C66.5 79 61 74 61 74" stroke="#414141" stroke-width="2" stroke-linecap="round"/>
<line x1="45.6464" y1="136.648" x2="47.9758" y2="127.955" stroke="#414141" stroke-linecap="round"/>
<line x1="103.612" y1="129.354" x2="105.942" y2="138.047" stroke="#414141" stroke-linecap="round"/>
<circle cx="92" cy="52" r="3" fill="#414141"/>
<circle cx="61" cy="52" r="3" fill="#414141"/>
<path d="M102.493 103.582C102.539 103.31 102.355 103.052 102.082 103.007C101.81 102.961 101.552 103.145 101.507 103.418L102.493 103.582ZM84 117.5L84.495 117.571L84 117.5ZM80.5 111.5L80.2457 111.07C80.0218 111.202 79.9367 111.484 80.0499 111.718C80.1631 111.952 80.4368 112.06 80.6795 111.967L80.5 111.5ZM93.9569 100.703C94.0691 100.451 93.9554 100.155 93.7031 100.043C93.4507 99.9309 93.1553 100.045 93.0431 100.297L93.9569 100.703ZM56.9779 101.353C56.8967 101.089 56.6169 100.941 56.353 101.022C56.089 101.103 55.9409 101.383 56.0221 101.647L56.9779 101.353ZM61.1374 115.019C60.8718 114.943 60.5951 115.097 60.5192 115.363C60.4434 115.628 60.5971 115.905 60.8626 115.981L61.1374 115.019ZM62.7905 111.954C63.0412 112.07 63.3383 111.96 63.454 111.71C63.5697 111.459 63.4603 111.162 63.2095 111.046L62.7905 111.954ZM52 107.5L52.495 107.571L52.4961 107.563L52.497 107.555L52 107.5ZM52.9969 103.055C53.0274 102.781 52.8297 102.534 52.5552 102.503C52.2808 102.473 52.0336 102.67 52.0031 102.945L52.9969 103.055ZM70.7978 119.781L70.3072 119.878L70.7978 119.781ZM58.6654 119.945L58.3409 120.326L58.6654 119.945ZM89.0306 121.48L88.6003 121.226L89.0306 121.48ZM86.1709 122.163L85.8332 122.532L86.1709 122.163ZM101.507 103.418C101.189 105.322 99.4724 110.104 95.1834 113.613L95.8166 114.387C100.328 110.696 102.144 105.678 102.493 103.582L101.507 103.418ZM95.1834 113.613C92.0058 116.213 89.837 119.136 88.6003 121.226L89.4609 121.735C90.6499 119.726 92.7463 116.899 95.8166 114.387L95.1834 113.613ZM86.5086 121.794C85.2801 120.669 84.2674 119.164 84.495 117.571L83.505 117.429C83.2045 119.533 84.541 121.348 85.8332 122.532L86.5086 121.794ZM84.495 117.571C84.6165 116.72 84.8575 115.79 85.0664 114.842C85.268 113.927 85.4435 112.98 85.373 112.205C85.3371 111.81 85.2346 111.419 85.0058 111.091C84.7692 110.752 84.4249 110.519 83.9833 110.406C83.148 110.193 81.9556 110.404 80.3205 111.033L80.6795 111.967C82.2944 111.346 83.2271 111.245 83.7355 111.375C83.9658 111.434 84.098 111.537 84.1856 111.663C84.2811 111.8 84.3505 112.003 84.3771 112.295C84.4316 112.895 84.2946 113.698 84.0899 114.627C83.8925 115.522 83.6336 116.53 83.505 117.429L84.495 117.571ZM80.7544 111.93C82.6024 110.838 85.4711 108.976 88.0833 106.931C89.3893 105.909 90.639 104.834 91.667 103.782C92.6882 102.737 93.5207 101.685 93.9569 100.703L93.0431 100.297C92.6793 101.115 91.9452 102.067 90.9518 103.083C89.9652 104.093 88.7524 105.137 87.4668 106.144C84.8956 108.157 82.0643 109.995 80.2457 111.07L80.7544 111.93ZM56.0221 101.647C56.7121 103.889 59.3172 108.882 64.3077 110.962L64.6923 110.038C60.0828 108.118 57.6213 103.444 56.9779 101.353L56.0221 101.647ZM64.3077 110.962C66.106 111.711 67.465 113.203 68.452 114.902C69.4378 116.599 70.0285 118.462 70.3072 119.878L71.2884 119.685C70.9929 118.183 70.369 116.211 69.3167 114.4C68.2655 112.591 66.7627 110.901 64.6923 110.038L64.3077 110.962ZM69.531 120.823C69.14 120.628 68.7849 120.306 68.3633 119.854C67.9605 119.422 67.4747 118.845 66.8995 118.276C65.7114 117.102 64.0386 115.848 61.1374 115.019L60.8626 115.981C63.5813 116.758 65.1113 117.915 66.1966 118.988C66.7582 119.543 67.1768 120.048 67.632 120.536C68.0684 121.004 68.525 121.439 69.0852 121.718L69.531 120.823ZM63.2095 111.046C62.6458 110.786 61.9696 110.53 61.2996 110.365C60.6411 110.202 59.9353 110.113 59.3375 110.235C59.0321 110.297 58.7329 110.419 58.486 110.636C58.2339 110.856 58.0647 111.151 57.9878 111.507C57.8408 112.188 58.0333 113.082 58.5448 114.207L59.4552 113.793C58.9667 112.718 58.8884 112.074 58.9653 111.718C59.0005 111.555 59.0669 111.456 59.1449 111.388C59.2281 111.315 59.3533 111.253 59.5376 111.215C59.9189 111.137 60.4527 111.186 61.0598 111.335C61.6554 111.482 62.2709 111.714 62.7905 111.954L63.2095 111.046ZM58.5448 114.207C59.6593 116.659 59.9626 118.339 59.9466 119.384L60.9465 119.4C60.9654 118.158 60.6076 116.328 59.4552 113.793L58.5448 114.207ZM58.99 119.565C57.4653 118.264 55.6641 116.402 54.3333 114.283C52.9987 112.157 52.1723 109.83 52.495 107.571L51.505 107.429C51.135 110.02 52.0905 112.591 53.4864 114.815C54.886 117.044 56.7638 118.98 58.3409 120.326L58.99 119.565ZM52.497 107.555L52.9969 103.055L52.0031 102.945L51.5031 107.445L52.497 107.555ZM70.3072 119.878C70.3734 120.214 70.2653 120.533 70.0935 120.717C69.9397 120.882 69.7536 120.933 69.531 120.823L69.0852 121.718C69.7536 122.051 70.4084 121.846 70.8248 121.399C71.2231 120.972 71.4144 120.325 71.2884 119.685L70.3072 119.878ZM59.9466 119.384C59.9442 119.542 59.9029 119.634 59.8652 119.685C59.8278 119.735 59.7744 119.773 59.6991 119.793C59.5402 119.837 59.2648 119.8 58.99 119.565L58.3409 120.326C58.8128 120.728 59.4205 120.906 59.9618 120.758C60.5448 120.6 60.936 120.094 60.9465 119.4L59.9466 119.384ZM88.6003 121.226C88.3567 121.637 87.9687 121.926 87.5732 122.033C87.188 122.137 86.8097 122.07 86.5086 121.794L85.8332 122.532C86.4206 123.07 87.1654 123.18 87.8345 122.998C88.4933 122.82 89.0909 122.36 89.4609 121.735L88.6003 121.226Z" fill="#414141"/>
<path d="M80.4999 111.5C70.4999 115 67 127.5 65.5 144M75.9998 145C75.8331 139.333 72.9998 128.5 83.9998 116" stroke="#414141" stroke-linecap="round"/>
<circle cx="73" cy="125" r="2" fill="#414141"/>
<circle cx="71" cy="142" r="2" fill="#414141"/>
<path d="M85.8571 141L85 135.4L99.5714 134L100 136.8" stroke="#414141" stroke-linecap="round"/>
</svg>
