<svg width="150" height="175" viewBox="0 0 150 175" fill="none" xmlns="http://www.w3.org/2000/svg">
<rect x="0.68214" y="1.24115" width="97.3792" height="120.316" rx="7" transform="matrix(0.959858 0.280486 -0.277718 0.960663 54.9822 -0.142507)" fill="#FFBE41" stroke="#414141" stroke-width="2"/>
<rect x="1.14694" y="0.825298" width="107.115" height="132.374" rx="7" transform="matrix(0.986823 -0.161801 0.160115 0.987098 -0.11703 42.5558)" fill="#FFBE41" stroke="#414141" stroke-width="2"/>
<path d="M46.1548 143.698L59.6463 123.226L39.212 109.762L25.7205 130.234L46.1548 143.698ZM78.2512 84.2454C79.9005 84.3938 81.3602 83.1758 81.5114 81.525C81.6626 79.8742 80.4481 78.4157 78.7987 78.2674L78.2512 84.2454ZM45.6215 126.123C44.0017 118.206 43.8504 106.763 48.228 97.874C50.3818 93.5003 53.6123 89.7741 58.3197 87.2957C63.044 84.8085 69.4872 83.4573 78.2512 84.2454L78.7987 78.2674C69.1664 77.4012 61.5085 78.8399 55.5346 81.985C49.5438 85.139 45.4791 89.8874 42.8488 95.2286C37.6579 105.769 37.982 118.718 39.7453 127.337L45.6215 126.123Z" fill="#414141"/>
<path d="M71.4886 87.8364L68.9067 93.7697L85.1358 100.445L94.3568 76.3407L80.3408 71.149" stroke="#F6F6F6" stroke-width="6" stroke-linecap="round" stroke-linejoin="round"/>
</svg>
