<svg width="42" height="32" viewBox="0 0 42 32" fill="none" xmlns="http://www.w3.org/2000/svg">
<g clip-path="url(#clip0_552_343)">
<circle cx="26.2068" cy="16" r="15" fill="#F6F6F6" stroke="#545454" stroke-width="2"/>
<path d="M19.3496 23.1836C19.3496 23.1836 22 24.9999 26 24.9999C30 24.9999 32.7374 23.1836 32.7374 23.1836" stroke="#545454" stroke-linecap="round"/>
<path d="M14.2068 7L38.2068 7" stroke="#545454" stroke-width="3"/>
<path d="M14.8545 7.25837C13.917 6.29578 11.3642 4.54588 8.65336 5.24694C5.94255 5.948 2.42162 4.44848 1 3.61108" stroke="#545454" stroke-width="2" stroke-linecap="round" stroke-linejoin="round"/>
<path d="M15.0286 7.18515C13.7108 6.92289 10.6158 6.92666 8.77882 9.03985C6.94185 11.153 3.19082 11.9115 1.54492 12.0266" stroke="#545454" stroke-width="2" stroke-linecap="round" stroke-linejoin="round"/>
<path d="M16.3521 14.8171C16.6863 15.5099 16.7695 15.6406 17.2959 16.0815C18.7941 17.3362 21.6532 17.6278 23.1917 15.5516C24.7301 13.4754 23.7582 10.4183 23.0799 9.1493C23.0918 9.83222 22.1209 10.5892 21.6339 10.8823C21.9977 9.16819 20.1209 8.774 20.583 7.05814C18.1531 8.80835 20.1432 10.0545 18.6823 10.9339C18.6704 10.251 17.0268 9.25496 16.5274 8.83673C17.064 11.3891 15.331 12.7002 16.3521 14.8171Z" fill="#FFBE41"/>
<path d="M21.9243 8.44545L21.9243 8.44545L21.8932 8.4007L21.4912 8.67972L21.8932 8.4007C21.7008 8.12353 21.6024 7.96748 21.5488 7.81223L21.0762 7.97535L21.5488 7.81223C21.5082 7.69472 21.4856 7.55256 21.5487 7.31819C21.6587 6.90966 21.4998 6.47611 21.1517 6.23553L20.8674 6.64682L21.1517 6.23553C20.8037 5.99495 20.342 5.99942 19.9987 6.2467C19.2936 6.75452 18.831 7.2825 18.5623 7.85125C18.3826 8.23167 18.3095 8.58938 18.2826 8.90131C18.0648 8.72983 17.8462 8.57014 17.6604 8.43536L17.5961 8.38874L17.5961 8.38874C17.3865 8.23681 17.2503 8.13767 17.1696 8.07006L16.8485 8.45339L17.1696 8.07006C16.8428 7.7964 16.3785 7.75993 16.013 7.97922C15.6475 8.1985 15.4612 8.62534 15.5489 9.04244C15.7475 9.98736 15.5646 10.7 15.3362 11.5644L15.2907 11.737L15.7724 11.8631L15.2907 11.737C15.0418 12.6879 14.7761 13.8514 15.4515 15.2515C15.6119 15.5842 15.7542 15.8751 15.9467 16.1366C16.1503 16.4131 16.3812 16.6197 16.654 16.8481C17.5973 17.6382 18.927 18.1014 20.256 18.0653C21.6105 18.0284 23.0169 17.4674 23.9953 16.147C24.9717 14.8292 25.1121 13.2554 24.9607 11.9339C24.809 10.6092 24.3518 9.40718 23.962 8.67791C23.7442 8.2705 23.2758 8.06527 22.8286 8.18141C22.5126 8.26353 22.2653 8.49115 22.1504 8.78071C22.0753 8.66235 22.0015 8.55634 21.9363 8.46264C21.9323 8.45686 21.9283 8.45113 21.9243 8.44545ZM22.8115 11.2696C22.8819 11.5551 22.9386 11.8553 22.9737 12.1616C23.0932 13.2045 22.9505 14.1976 22.3884 14.9562C21.828 15.7124 21.0353 16.0433 20.2016 16.066C19.3419 16.0894 18.4929 15.7795 17.9381 15.3148C17.6838 15.1019 17.6103 15.0229 17.5573 14.9509C17.4933 14.864 17.4272 14.744 17.2529 14.3826C16.9072 13.666 16.9972 13.1157 17.2255 12.2434C17.2415 12.1822 17.2581 12.1201 17.2752 12.0558L17.2792 12.0406C17.3681 11.7064 17.4689 11.3273 17.5401 10.9046C17.5794 10.9447 17.6138 10.9825 17.6432 11.0177C17.6663 11.0453 17.6825 11.067 17.6936 11.0829C17.7394 11.3875 17.9241 11.657 18.1979 11.8087C18.5106 11.9818 18.8919 11.9749 19.1981 11.7906C19.7768 11.4423 20.1123 10.9762 20.2322 10.411C20.2838 10.1679 20.288 9.94013 20.285 9.76512C20.2839 9.7026 20.2816 9.64028 20.2793 9.58307C20.4555 9.83774 20.5632 10.0026 20.6256 10.1635C20.6812 10.307 20.7024 10.4552 20.6558 10.6747C20.5732 11.0643 20.7295 11.4657 21.0538 11.6968C21.3781 11.9278 21.8086 11.9444 22.1498 11.7391C22.3341 11.6281 22.5701 11.4669 22.8115 11.2696ZM18.1821 10.9426L18.1769 10.9427L17.8841 10.5414C17.7605 10.6334 17.6811 10.7812 17.6825 10.9467C17.6825 10.9427 17.6825 10.9368 17.6826 10.9299L17.6827 10.9293C17.6828 10.9236 17.6835 10.8908 17.6911 10.8506L17.6912 10.8501C17.6942 10.8344 17.7061 10.7711 17.7455 10.7003C17.7629 10.6689 17.8082 10.6004 17.8846 10.5419C17.9375 10.5953 17.9852 10.6472 18.0271 10.6973C18.1544 10.8498 18.1778 10.928 18.1817 10.9412C18.1819 10.9418 18.182 10.9423 18.1821 10.9426Z" fill="#545454" stroke="#F6F6F6" stroke-linecap="round" stroke-linejoin="round"/>
<path d="M28.439 14.8171C28.7732 15.5099 28.8564 15.6406 29.3828 16.0815C30.881 17.3362 33.7402 17.6278 35.2786 15.5516C36.817 13.4754 35.8451 10.4183 35.1668 9.1493C35.1788 9.83222 34.2078 10.5892 33.7208 10.8823C34.0846 9.16819 32.2078 8.774 32.6699 7.05814C30.24 8.80835 32.2301 10.0545 30.7692 10.9339C30.7573 10.251 29.1137 9.25496 28.6143 8.83673C29.1509 11.3891 27.4179 12.7002 28.439 14.8171Z" fill="#FFBE41"/>
<path d="M34.011 8.44545L34.011 8.44545L33.9799 8.4007L33.5778 8.67972L33.9799 8.4007C33.7875 8.12353 33.689 7.96748 33.6355 7.81223L33.1628 7.97535L33.6355 7.81223C33.5949 7.69472 33.5723 7.55256 33.6354 7.31819C33.7454 6.90966 33.5864 6.47611 33.2384 6.23553L32.9541 6.64682L33.2384 6.23553C32.8904 5.99495 32.4286 5.99942 32.0853 6.2467C31.3803 6.75452 30.9176 7.2825 30.6489 7.85125C30.4692 8.23167 30.3962 8.58938 30.3693 8.90131C30.1515 8.72983 29.9329 8.57014 29.7471 8.43536L29.6828 8.38874L29.6828 8.38874C29.4732 8.23681 29.337 8.13767 29.2562 8.07006L28.9352 8.45339L29.2562 8.07006C28.9295 7.7964 28.4652 7.75993 28.0997 7.97922C27.7342 8.1985 27.5479 8.62534 27.6356 9.04244C27.8342 9.98736 27.6513 10.7 27.4228 11.5644L27.3774 11.737L27.8591 11.8631L27.3774 11.737C27.1285 12.6879 26.8628 13.8514 27.5382 15.2515C27.6986 15.5842 27.8409 15.8751 28.0334 16.1366C28.2369 16.4131 28.4679 16.6197 28.7406 16.8481C29.684 17.6382 31.0137 18.1014 32.3427 18.0653C33.6972 18.0284 35.1036 17.4674 36.082 16.147C37.0584 14.8292 37.1988 13.2554 37.0474 11.9339C36.8956 10.6092 36.4385 9.40718 36.0487 8.67791C35.8309 8.2705 35.3624 8.06527 34.9153 8.18141C34.5992 8.26353 34.352 8.49115 34.2371 8.78071C34.1619 8.66235 34.0882 8.55634 34.023 8.46264C34.0189 8.45686 34.0149 8.45113 34.011 8.44545ZM34.8982 11.2696C34.9686 11.5551 35.0253 11.8553 35.0604 12.1616C35.1799 13.2045 35.0372 14.1976 34.475 14.9562C33.9147 15.7124 33.122 16.0433 32.2883 16.066C31.4286 16.0894 30.5796 15.7795 30.0247 15.3148C29.7705 15.1019 29.697 15.0229 29.644 14.9509C29.58 14.864 29.5138 14.744 29.3395 14.3826C28.9939 13.666 29.0839 13.1157 29.3122 12.2434C29.3282 12.1822 29.3447 12.1201 29.3618 12.0558L29.3659 12.0406C29.4547 11.7064 29.5556 11.3273 29.6268 10.9046C29.666 10.9447 29.7005 10.9825 29.7299 11.0177C29.7529 11.0453 29.7692 11.067 29.7802 11.0829C29.8261 11.3875 30.0108 11.657 30.2846 11.8087C30.5973 11.9818 30.9786 11.9749 31.2848 11.7906C31.8635 11.4423 32.199 10.9762 32.3189 10.411C32.3705 10.1679 32.3747 9.94013 32.3716 9.76512C32.3705 9.7026 32.3683 9.64028 32.366 9.58307C32.5422 9.83774 32.6499 10.0026 32.7122 10.1635C32.7678 10.307 32.7891 10.4552 32.7425 10.6747C32.6598 11.0643 32.8162 11.4657 33.1405 11.6968C33.4648 11.9278 33.8953 11.9444 34.2364 11.7391C34.4208 11.6281 34.6567 11.4669 34.8982 11.2696ZM30.2688 10.9426L30.2636 10.9427L29.9707 10.5414C29.8471 10.6334 29.7678 10.7812 29.7692 10.9467C29.7691 10.9427 29.7691 10.9368 29.7693 10.9299L29.7693 10.9293C29.7695 10.9236 29.7702 10.8908 29.7778 10.8506L29.7779 10.8501C29.7808 10.8344 29.7927 10.7711 29.8321 10.7003C29.8496 10.6689 29.8949 10.6004 29.9712 10.5419C30.0241 10.5953 30.0719 10.6472 30.1137 10.6973C30.241 10.8498 30.2644 10.928 30.2684 10.9412C30.2686 10.9418 30.2687 10.9423 30.2688 10.9426Z" fill="#545454" stroke="#F6F6F6" stroke-linecap="round" stroke-linejoin="round"/>
</g>
<defs>
<clipPath id="clip0_552_343">
<rect width="42" height="32" fill="white"/>
</clipPath>
</defs>
</svg>
